<svg xmlns="http://www.w3.org/2000/svg" viewBox="0 0 640 360"><rect width="640" height="360" fill="#14343b"/><path d="M81 96h244v184H81z" fill="#edf0e9"/><path d="M115 137h126M115 169h174M115 201h111M115 233h148" stroke="#4b8580" stroke-width="8"/><g fill="none" stroke="#efbd54" stroke-width="13" stroke-linecap="round"><path d="M358 127c28-45 83-35 83 10s-57 40-57 82 58 51 84 4 75-35 92 4"/></g><g fill="#d55340"><circle cx="358" cy="127" r="9"/><circle cx="441" cy="137" r="9"/><circle cx="384" cy="219" r="9"/><circle cx="468" cy="223" r="9"/><circle cx="560" cy="227" r="9"/></g><rect x="277" y="78" width="70" height="70" fill="#d55340"/><path d="M295 97h34v34h-34z" fill="none" stroke="#fff" stroke-width="5"/><text x="42" y="58" fill="#fff" font-family="Georgia,serif" font-size="25">GLASSWORM</text><text x="44" y="85" fill="#8fc1b9" font-family="monospace" font-size="12" letter-spacing="3">EXTENSION SUPPLY CHAIN</text></svg>